HIERARCHY
ROOT joint_Root
{
	OFFSET 0.0 0.0 0.0
	CHANNELS 6 Xposition Yposition Zposition Zrotation Xrotation Yrotation 
	JOINT Hips
	{
		OFFSET -0.726466 93.3139 -2.00062
		CHANNELS 6 Xposition Yposition Zposition Zrotation Xrotation Yrotation 
		JOINT Spine
		{
			OFFSET 15.7357 0.0 0.0
			CHANNELS 6 Xposition Yposition Zposition Zrotation Xrotation Yrotation 
			JOINT Chest
			{
				OFFSET 8.98455 -0.406207 0.0
				CHANNELS 6 Xposition Yposition Zposition Zrotation Xrotation Yrotation 
				JOINT Neck
				{
					OFFSET 16.3773 0.0 0.0
					CHANNELS 6 Xposition Yposition Zposition Zrotation Xrotation Yrotation 
					JOINT Head
					{
						OFFSET 6.45672 0.0 0.0
						CHANNELS 6 Xposition Yposition Zposition Zrotation Xrotation Yrotation 
						End Site
						{
							OFFSET 0.0 0.0 0.0
						}
					}
				}
				JOINT Shoulder_L
				{
					OFFSET 12.9942 -0.242716 4.98039
					CHANNELS 6 Xposition Yposition Zposition Zrotation Xrotation Yrotation 
					JOINT UpperArm_L
					{
						OFFSET 5.34809 0.0 0.0
						CHANNELS 6 Xposition Yposition Zposition Zrotation Xrotation Yrotation 
						JOINT LowerArm_L
						{
							OFFSET 24.3286 1.87007e-05 0.0
							CHANNELS 6 Xposition Yposition Zposition Zrotation Xrotation Yrotation 
							JOINT Hand_L
							{
								OFFSET 22.2916 0.0 0.0
								CHANNELS 6 Xposition Yposition Zposition Zrotation Xrotation Yrotation 
								End Site
								{
									OFFSET 0.0 0.0 0.0
								}
							}
						}
					}
				}
				JOINT Shoulder_R
				{
					OFFSET 12.9945 -0.242716 -4.98039
					CHANNELS 6 Xposition Yposition Zposition Zrotation Xrotation Yrotation 
					JOINT UpperArm_R
					{
						OFFSET -5.34813 0.0 0.0
						CHANNELS 6 Xposition Yposition Zposition Zrotation Xrotation Yrotation 
						JOINT LowerArm_R
						{
							OFFSET -24.3289 0.000322201 0.0
							CHANNELS 6 Xposition Yposition Zposition Zrotation Xrotation Yrotation 
							JOINT Hand_R
							{
								OFFSET -22.2915 -0.000108084 0.0
								CHANNELS 6 Xposition Yposition Zposition Zrotation Xrotation Yrotation 
								End Site
								{
									OFFSET 0.0 0.0 0.0
								}
							}
						}
					}
				}
			}
		}
		JOINT UpperLeg_L
		{
			OFFSET -2.19248 -6.46944 0.0
			CHANNELS 6 Xposition Yposition Zposition Zrotation Xrotation Yrotation 
			JOINT LowerLeg_L
			{
				OFFSET 39.0811 0.0 -1.23785e-05
				CHANNELS 6 Xposition Yposition Zposition Zrotation Xrotation Yrotation 
				JOINT Foot_L
				{
					OFFSET 40.9854 0.0 -1.26872e-05
					CHANNELS 6 Xposition Yposition Zposition Zrotation Xrotation Yrotation 
					JOINT Toes_L
					{
						OFFSET 11.7543 0.0 0.0
						CHANNELS 6 Xposition Yposition Zposition Zrotation Xrotation Yrotation 
						End Site
						{
							OFFSET 0.0 0.0 0.0
						}
					}
				}
			}
		}
		JOINT UpperLeg_R
		{
			OFFSET -2.19251 6.46944 0.0
			CHANNELS 6 Xposition Yposition Zposition Zrotation Xrotation Yrotation 
			JOINT LowerLeg_R
			{
				OFFSET -39.0811 -0.00228153 -0.0401928
				CHANNELS 6 Xposition Yposition Zposition Zrotation Xrotation Yrotation 
				JOINT Foot_R
				{
					OFFSET -40.9854 0.0 0.0
					CHANNELS 6 Xposition Yposition Zposition Zrotation Xrotation Yrotation 
					JOINT Toes_R
					{
						OFFSET -11.7543 0.0 0.0
						CHANNELS 6 Xposition Yposition Zposition Zrotation Xrotation Yrotation 
						End Site
						{
							OFFSET 0.0 0.0 0.0
						}
					}
				}
			}
		}
	}
}
MOTION
Frames:	9
Frame Time:	0.0333333
0.000000 0.000000 0.000000 0.000000 0.000000 -0.000000 0.291074 92.544100 -2.956910 87.370400 -3.857070 3.685220 15.735700 0.000005 -0.000001 87.214400 86.122300 -87.562100 8.984550 -0.406207 -0.000000 -0.020752 -0.353194 -0.694919 16.377300 -0.000001 -0.000001 2.214740 -2.255070 3.096580 6.456720 -0.000001 -0.000000 3.686070 -2.399380 -1.821090 12.994200 -0.242716 4.980390 -89.627000 -1.132850 -71.775200 5.348090 -0.000007 -0.000001 -68.327700 38.323100 -12.792500 24.328600 0.000019 0.000005 1.433170 3.405630 -22.838100 22.291600 -0.000001 0.000005 4.676930 5.509740 -6.930600 12.994500 -0.242716 -4.980390 90.656500 -1.723800 -69.148200 -5.348130 -0.000001 -0.000004 -79.154400 -32.287400 -102.754000 -24.328900 0.000322 -0.000009 17.546900 1.529060 -85.177400 -22.291500 -0.000108 -0.000004 23.726000 5.285090 0.486510 -2.192480 -6.469440 -0.000000 -175.934000 -5.854520 -3.617810 39.081100 -0.000007 -0.000012 -0.071781 0.172865 22.550300 40.985400 -0.000006 -0.000013 0.172448 1.223350 -65.376900 11.754300 -0.000000 0.000003 -0.000046 -0.000527 -16.598000 -2.192510 6.469440 -0.000001 -179.490000 11.452200 179.041000 -39.081100 -0.002282 -0.040193 0.025580 -0.066943 18.390100 -40.985400 0.000008 0.000006 4.717830 7.282700 -64.300900 -11.754300 -0.000006 -0.000006 -0.006745 -0.077458 -19.726100
0.000000 0.000000 0.000000 0.000000 0.000000 -0.000000 0.290073 92.556000 -2.974310 87.405000 -3.730610 3.662000 15.735700 0.000005 -0.000001 87.139000 86.102200 -87.481900 8.984550 -0.406207 -0.000000 0.018923 -0.365840 -0.685360 16.377300 -0.000001 -0.000001 2.185390 -2.327770 3.170980 6.456720 -0.000001 -0.000000 3.605240 -2.431950 -1.791970 12.994200 -0.242716 4.980390 -89.617700 -1.162510 -71.793600 5.348090 -0.000007 -0.000001 -68.417100 38.282100 -12.664000 24.328600 0.000019 0.000005 1.476590 3.524430 -22.748500 22.291600 -0.000001 0.000005 4.692040 5.508590 -6.883400 12.994500 -0.242716 -4.980390 90.648800 -1.694240 -69.042800 -5.348130 -0.000001 -0.000004 -78.868800 -32.670800 -102.748000 -24.328900 0.000322 -0.000009 17.600700 1.564140 -85.083300 -22.291500 -0.000108 -0.000004 23.690500 5.283790 0.522242 -2.192480 -6.469440 -0.000000 -175.985000 -5.711760 -3.629780 39.081100 -0.000007 -0.000012 -0.071493 0.172993 22.453800 40.985400 -0.000006 -0.000013 0.169210 1.205540 -65.303300 11.754300 -0.000000 0.000003 -0.000048 -0.000550 -16.598900 -2.192510 6.469440 -0.000001 -179.523000 11.485400 179.062000 -39.081100 -0.002282 -0.040193 0.024550 -0.064214 18.291100 -40.985400 0.000008 0.000006 4.605470 7.213920 -64.236700 -11.754300 -0.000006 -0.000006 -0.006397 -0.074397 -19.601200
0.000000 0.000000 0.000000 0.000000 0.000000 -0.000000 0.288929 92.557400 -3.000190 87.381900 -3.564200 3.574750 15.735700 0.000005 -0.000001 86.793800 86.106200 -87.107200 8.984550 -0.406207 -0.000000 0.008245 -0.414224 -0.626408 16.377300 -0.000001 -0.000001 2.185600 -2.423670 3.251030 6.456720 -0.000001 -0.000000 3.512960 -2.457470 -1.755960 12.994200 -0.242716 4.980390 -89.621800 -1.151640 -71.818000 5.348090 -0.000007 -0.000001 -68.450200 38.306700 -12.499200 24.328600 0.000019 0.000005 1.412440 3.375540 -22.721400 22.291600 -0.000001 0.000005 4.767980 5.507670 -6.845370 12.994500 -0.242716 -4.980390 90.648000 -1.681990 -68.925100 -5.348130 -0.000001 -0.000004 -78.420500 -33.128300 -102.506000 -24.328900 0.000322 -0.000009 17.586600 1.575140 -85.044700 -22.291500 -0.000108 -0.000004 23.644100 5.279470 0.640577 -2.192480 -6.469440 -0.000000 -175.968000 -5.600830 -3.776900 39.081100 -0.000007 -0.000012 -0.071871 0.173628 22.486300 40.985400 -0.000006 -0.000013 0.180635 1.291710 -65.285900 11.754300 -0.000000 0.000003 -0.000047 -0.000533 -16.598300 -2.192510 6.469440 -0.000001 -179.476000 11.629300 179.018000 -39.081100 -0.002282 -0.040193 0.024950 -0.065798 18.193800 -40.985400 0.000008 0.000006 4.644150 7.160960 -64.243500 -11.754300 -0.000006 -0.000006 -0.006658 -0.076702 -19.695300
0.000000 0.000000 0.000000 0.000000 0.000000 -0.000000 0.288010 92.572300 -3.009190 87.421300 -3.369570 3.540120 15.735700 0.000005 -0.000001 86.565600 86.092300 -86.859700 8.984550 -0.406207 -0.000000 0.034272 -0.448225 -0.587703 16.377300 -0.000001 -0.000001 2.156710 -2.510810 3.298970 6.456720 -0.000001 -0.000000 3.440610 -2.534790 -1.730820 12.994200 -0.242716 4.980390 -89.628700 -1.133090 -71.854100 5.348090 -0.000007 -0.000001 -68.523200 38.192600 -12.365700 24.328600 0.000019 0.000005 1.511980 3.628380 -22.639800 22.291600 -0.000001 0.000005 4.663340 5.508100 -6.863130 12.994500 -0.242716 -4.980390 90.643200 -1.658180 -68.795000 -5.348130 -0.000001 -0.000004 -77.833000 -33.623300 -101.935000 -24.328900 0.000322 -0.000009 17.170900 1.496170 -85.171200 -22.291500 -0.000108 -0.000004 23.521200 5.281600 0.582270 -2.192480 -6.469440 -0.000000 -176.030000 -5.468660 -3.787030 39.081100 -0.000007 -0.000012 -0.070338 0.170964 22.363300 40.985400 -0.000006 -0.000013 0.191848 1.308900 -65.203100 11.754300 -0.000000 0.000003 -0.000046 -0.000531 -16.598200 -2.192510 6.469440 -0.000001 -179.515000 11.677000 179.034000 -39.081100 -0.002282 -0.040193 0.024791 -0.065661 18.103500 -40.985400 0.000008 0.000006 4.587370 7.060090 -64.182900 -11.754300 -0.000006 -0.000006 -0.006761 -0.077602 -19.732000
0.000000 0.000000 0.000000 0.000000 0.000000 -0.000000 0.301127 92.572500 -3.017560 87.416800 -3.242300 3.488910 15.735700 0.000005 -0.000001 86.403600 86.086400 -86.641400 8.984550 -0.406207 -0.000000 0.044915 -0.474842 -0.475187 16.377300 -0.000001 -0.000001 2.142290 -2.603640 3.339570 6.456720 -0.000001 -0.000000 3.323080 -2.606180 -1.854650 12.994200 -0.242716 4.980390 -89.648500 -1.071630 -71.839100 5.348090 -0.000007 -0.000001 -68.568000 38.256700 -12.195700 24.328600 0.000019 0.000005 1.501040 3.598820 -22.658100 22.291600 -0.000001 0.000005 4.765040 5.506700 -6.805770 12.994500 -0.242716 -4.980390 90.633700 -1.625610 -68.699300 -5.348130 -0.000001 -0.000004 -76.843500 -34.133900 -100.821000 -24.328900 0.000322 -0.000009 16.599600 1.314790 -85.599900 -22.291500 -0.000108 -0.000004 23.474100 5.277110 0.705212 -2.192480 -6.469440 -0.000000 -176.035000 -5.428130 -3.870420 39.081100 -0.000007 -0.000012 -0.069504 0.168806 22.378900 40.985400 -0.000006 -0.000013 0.223030 1.424450 -65.195800 11.754300 -0.000000 0.000003 -0.000050 -0.000571 -16.599700 -2.192510 6.469440 -0.000001 -179.499000 11.722900 178.994000 -39.081100 -0.002282 -0.040193 0.024902 -0.066095 18.079500 -40.985400 0.000008 0.000006 4.575190 6.975600 -64.179500 -11.754300 -0.000006 -0.000006 -0.006669 -0.076799 -19.699300
0.000000 0.000000 0.000000 0.000000 0.000000 -0.000000 0.304364 92.581100 -3.026990 87.453000 -3.079370 3.432660 15.735700 0.000005 -0.000001 86.124100 86.075300 -86.326800 8.984550 -0.406207 -0.000000 0.064500 -0.516821 -0.404744 16.377300 -0.000001 -0.000001 2.077400 -2.686720 3.324110 6.456720 -0.000001 -0.000000 3.301940 -2.622270 -1.901260 12.994200 -0.242716 4.980390 -89.648900 -1.072330 -71.869600 5.348090 -0.000007 -0.000001 -68.679700 38.208300 -12.082200 24.328600 0.000019 0.000005 1.485500 3.571760 -22.599500 22.291600 -0.000001 0.000005 4.851050 5.507070 -6.820870 12.994500 -0.242716 -4.980390 90.610300 -1.561200 -68.645700 -5.348130 -0.000001 -0.000004 -75.499600 -34.576600 -98.810900 -24.328900 0.000322 -0.000009 15.538400 0.932553 -86.651900 -22.291500 -0.000108 -0.000004 23.352700 5.275440 0.750531 -2.192480 -6.469440 -0.000000 -176.076000 -5.382400 -3.923040 39.081100 -0.000007 -0.000012 -0.070373 0.171564 22.302800 40.985400 -0.000006 -0.000013 0.239793 1.508250 -65.135300 11.754300 -0.000000 0.000003 -0.000047 -0.000539 -16.598500 -2.192510 6.469440 -0.000001 -179.523000 11.803100 178.937000 -39.081100 -0.002282 -0.040193 0.024876 -0.066051 18.070600 -40.985400 0.000008 0.000006 4.562560 6.883390 -64.147400 -11.754300 -0.000006 -0.000006 -0.006656 -0.076679 -19.694400
0.000000 0.000000 0.000000 0.000000 0.000000 -0.000000 0.306616 92.582000 -3.031020 87.467500 -2.911490 3.416950 15.735700 0.000005 -0.000001 85.422300 86.052900 -85.583700 8.984550 -0.406207 -0.000000 0.102207 -0.619087 -0.321968 16.377300 -0.000001 -0.000001 2.090430 -2.729520 3.287940 6.456720 -0.000001 -0.000000 3.185390 -2.585280 -1.905200 12.994200 -0.242716 4.980390 -89.659800 -1.035410 -71.810300 5.348090 -0.000007 -0.000001 -68.728800 38.186700 -11.988900 24.328600 0.000019 0.000005 1.524310 3.665480 -22.598300 22.291600 -0.000001 0.000005 4.839310 5.506080 -6.780280 12.994500 -0.242716 -4.980390 90.566500 -1.449610 -68.650000 -5.348130 -0.000001 -0.000004 -73.528900 -34.777600 -95.548700 -24.328900 0.000322 -0.000009 13.433000 0.351331 -88.532800 -22.291500 -0.000108 -0.000004 23.254000 5.274460 0.777314 -2.192480 -6.469440 -0.000000 -176.107000 -5.272100 -3.970910 39.081100 -0.000007 -0.000012 -0.068861 0.167892 22.300900 40.985400 -0.000006 -0.000013 0.256148 1.548890 -65.113600 11.754300 -0.000000 0.000003 -0.000049 -0.000554 -16.599100 -2.192510 6.469440 -0.000001 -179.538000 11.918800 178.928000 -39.081100 -0.002282 -0.040193 0.025037 -0.066538 18.072300 -40.985400 0.000008 0.000006 4.572820 6.829160 -64.157300 -11.754300 -0.000006 -0.000006 -0.006482 -0.075149 -19.632000
0.000000 0.000000 0.000000 0.000000 0.000000 -0.000000 0.303839 92.579500 -3.017170 87.520400 -2.767960 3.412860 15.735700 0.000005 -0.000001 84.731200 86.015800 -84.861700 8.984550 -0.406207 -0.000000 0.167967 -0.722879 -0.259814 16.377300 -0.000001 -0.000001 2.103540 -2.743900 3.232900 6.456720 -0.000001 -0.000000 3.080020 -2.514740 -1.944410 12.994200 -0.242716 4.980390 -89.680900 -0.971527 -71.814100 5.348090 -0.000007 -0.000001 -68.728500 38.234100 -11.960800 24.328600 0.000019 0.000005 1.502620 3.621220 -22.553500 22.291600 -0.000001 0.000005 4.902410 5.507010 -6.818280 12.994500 -0.242716 -4.980390 90.456800 -1.172580 -68.712900 -5.348130 -0.000001 -0.000004 -70.606600 -34.644300 -91.024700 -24.328900 0.000322 -0.000009 10.345100 -0.184547 -91.016600 -22.291500 -0.000108 -0.000004 23.373600 5.280750 0.605591 -2.192480 -6.469440 -0.000000 -176.151000 -5.292830 -3.974600 39.081100 -0.000007 -0.000012 -0.068769 0.167861 22.277800 40.985400 -0.000006 -0.000013 0.293412 1.725040 -65.102400 11.754300 -0.000000 0.000003 -0.000046 -0.000528 -16.598100 -2.192510 6.469440 -0.000001 -179.590000 11.973700 178.939000 -39.081100 -0.002282 -0.040193 0.025094 -0.066696 18.076400 -40.985400 0.000008 0.000006 4.553330 6.748110 -64.210300 -11.754300 -0.000006 -0.000006 -0.006638 -0.076522 -19.688000
0.000000 0.000000 0.000000 0.000000 0.000000 -0.000000 0.294057 92.577200 -3.008350 87.497400 -2.667650 3.420340 15.735700 0.000005 -0.000001 83.653100 85.968100 -83.721100 8.984550 -0.406207 -0.000000 0.247888 -0.886726 -0.133989 16.377300 -0.000001 -0.000001 2.099440 -2.712460 3.092510 6.456720 -0.000001 -0.000000 3.024350 -2.360960 -1.968320 12.994200 -0.242716 4.980390 -89.710000 -0.880587 -71.769900 5.348090 -0.000007 -0.000001 -68.714800 38.285000 -11.890900 24.328600 0.000019 0.000005 1.494950 3.592920 -22.608600 22.291600 -0.000001 0.000005 4.886600 5.506840 -6.811420 12.994500 -0.242716 -4.980390 90.350000 -0.905491 -68.865000 -5.348130 -0.000001 -0.000004 -66.589600 -33.776700 -84.913800 -24.328900 0.000322 -0.000009 6.993620 -0.501233 -94.086500 -22.291500 -0.000108 -0.000004 23.976100 5.299610 0.084240 -2.192480 -6.469440 -0.000000 -176.110000 -5.279000 -3.990020 39.081100 -0.000007 -0.000012 -0.069216 0.168659 22.312800 40.985400 -0.000006 -0.000013 0.299259 1.813360 -65.118600 11.754300 -0.000000 0.000003 -0.000048 -0.000542 -16.598600 -2.192510 6.469440 -0.000001 -179.562000 11.975600 178.941000 -39.081100 -0.002282 -0.040193 0.024793 -0.065683 18.099800 -40.985400 0.000008 0.000006 4.519520 6.686030 -64.193500 -11.754300 -0.000006 -0.000006 -0.006618 -0.076351 -19.681000
